# xmcd
#
# Track frame offsets:
# 150
# 12578
# 27680
# 43363
# 53325
# 66164
# 79284
# 95406
# 107771
# 129759
# 143289
# 155558
# 166374
# 180461
# 199916
#
# Disc length: 2862 seconds
#
#
# Revision: 0
# Processed by: cddbd v1.5.2PL0 Copyright (c) Steve Scherf et al.
# Submitted via: Nero 7, 2, 3, 2 xxx
#
DISCID=c70b2c0f
DTITLE=Texas Twixy - Just Twixy
DYEAR=2006
DGENRE=Country
TTITLE0=Just Twixy
TTITLE1=Just Twixy
TTITLE2=Just Twixy
TTITLE3=Just Twixy
TTITLE4=Just Twixy
TTITLE5=Just Twixy
TTITLE6=Just Twixy
TTITLE7=Just Twixy
TTITLE8=Just Twixy
TTITLE9=Just Twixy
TTITLE10=Just Twixy
TTITLE11=Just Twixy
TTITLE12=Just Twixy
TTITLE13=Just Twixy
TTITLE14=Just Twixy
EXTD=
EXTT0=xxx
EXTT1=xxx
EXTT2=xxx
EXTT3=xxx
EXTT4=xxx
EXTT5=xxx
EXTT6=xxx
EXTT7=xxx
EXTT8=xxx
EXTT9=xxx
EXTT10=xxx
EXTT11=xxx
EXTT12=xxx
EXTT13=xxx
EXTT14=xxx
PLAYORDER=
